<svg width="251" height="307" version="1.1" xmlns="http://www.w3.org/2000/svg" desc="Created with imagetracer.js version 1.2.6" ><path fill="rgb(5,5,5)" stroke="rgb(5,5,5)" stroke-width="1" opacity="0.28627450980392155" d="M 117.5 74 L 126 74.5 L 117.5 75 L 117.5 74 Z " /><path fill="rgb(5,5,5)" stroke="rgb(5,5,5)" stroke-width="1" opacity="0.28627450980392155" d="M 148.5 74 L 157 74.5 L 148.5 75 L 148.5 74 Z " /><path fill="rgb(5,5,5)" stroke="rgb(5,5,5)" stroke-width="1" opacity="0.28627450980392155" d="M 109.5 75 L 116 75.5 L 109.5 76 L 109.5 75 Z " /><path fill="rgb(5,5,5)" stroke="rgb(5,5,5)" stroke-width="1" opacity="0.28627450980392155" d="M 158.5 75 L 166 75.5 L 158.5 76 L 158.5 75 Z " /><path fill="rgb(5,5,5)" stroke="rgb(5,5,5)" stroke-width="1" opacity="0.28627450980392155" d="M 104.5 76 L 107 76.5 L 104.5 77 L 104.5 76 Z " /><path fill="rgb(5,5,5)" stroke="rgb(5,5,5)" stroke-width="1" opacity="0.28627450980392155" d="M 168.5 76 L 171 76.5 L 168.5 77 L 168.5 76 Z " /><path fill="rgb(5,5,5)" stroke="rgb(5,5,5)" stroke-width="1" opacity="0.28627450980392155" d="M 93.5 78 L 97 78.5 L 93.5 79 L 93.5 78 Z " /><path fill="rgb(5,5,5)" stroke="rgb(5,5,5)" stroke-width="1" opacity="0.28627450980392155" d="M 116.5 81 L 126 81.5 L 116.5 82 L 116.5 81 Z " /><path fill="rgb(5,5,5)" stroke="rgb(5,5,5)" stroke-width="1" opacity="0.28627450980392155" d="M 148.5 81 L 158 81.5 L 148.5 82 L 148.5 81 Z " /><path fill="rgb(5,5,5)" stroke="rgb(5,5,5)" stroke-width="1" opacity="0.28627450980392155" d="M 192.5 81 L 195 81.5 L 192.5 82 L 192.5 81 Z " /><path fill="rgb(5,5,5)" stroke="rgb(5,5,5)" stroke-width="1" opacity="0.28627450980392155" d="M 109.5 82 L 113 82.5 L 109.5 83 L 109.5 82 Z " /><path fill="rgb(5,5,5)" stroke="rgb(5,5,5)" stroke-width="1" opacity="0.28627450980392155" d="M 160.5 82 L 164 82.5 L 160.5 83 L 160.5 82 Z " /><path fill="rgb(5,5,5)" stroke="rgb(5,5,5)" stroke-width="1" opacity="0.28627450980392155" d="M 103.5 83 L 106 83.5 L 103.5 84 L 103.5 83 Z " /><path fill="rgb(5,5,5)" stroke="rgb(5,5,5)" stroke-width="1" opacity="0.28627450980392155" d="M 168.5 83 L 171 83.5 L 168.5 84 L 168.5 83 Z " /><path fill="rgb(5,5,5)" stroke="rgb(5,5,5)" stroke-width="1" opacity="0.28627450980392155" d="M 174.5 84 L 177 84.5 L 174.5 85 L 174.5 84 Z " /><path fill="rgb(5,5,5)" stroke="rgb(5,5,5)" stroke-width="1" opacity="0.28627450980392155" d="M 178.5 85 L 181 85.5 L 178.5 86 L 178.5 85 Z " /><path fill="rgb(5,5,5)" stroke="rgb(5,5,5)" stroke-width="1" opacity="0.28627450980392155" d="M 61.5 91 L 60.5 93 L 61.5 91 Z " /><path fill="rgb(5,5,5)" stroke="rgb(5,5,5)" stroke-width="1" opacity="0.28627450980392155" d="M 58.5 93 L 57.5 95 L 58.5 93 Z " /><path fill="rgb(5,5,5)" stroke="rgb(5,5,5)" stroke-width="1" opacity="0.28627450980392155" d="M 55.5 95 L 53.5 98 L 55.5 95 Z " /><path fill="rgb(5,5,5)" stroke="rgb(5,5,5)" stroke-width="1" opacity="0.28627450980392155" d="M 69.5 95 L 68.5 97 L 66.5 98 L 67.5 96 L 69.5 95 Z " /><path fill="rgb(5,5,5)" stroke="rgb(5,5,5)" stroke-width="1" opacity="0.28627450980392155" d="M 64.5 98 L 63.5 100 L 64.5 98 Z " /><path fill="rgb(5,5,5)" stroke="rgb(5,5,5)" stroke-width="1" opacity="0.28627450980392155" d="M 50.5 99 L 41.5 109 L 50.5 99 Z " /><path fill="rgb(5,5,5)" stroke="rgb(5,5,5)" stroke-width="1" opacity="0.28627450980392155" d="M 61.5 100 L 59.5 103 L 61.5 100 Z " /><path fill="rgb(5,5,5)" stroke="rgb(5,5,5)" stroke-width="1" opacity="0.28627450980392155" d="M 56.5 104 L 48.5 113 L 56.5 104 Z " /><path fill="rgb(5,5,5)" stroke="rgb(5,5,5)" stroke-width="1" opacity="0.28627450980392155" d="M 137.5 108 L 138 214.5 L 137 214.5 L 137.5 108 Z " /><path fill="rgb(5,5,5)" stroke="rgb(5,5,5)" stroke-width="1" opacity="0.28627450980392155" d="M 39.5 111 L 38.5 113 L 39.5 111 Z " /><path fill="rgb(5,5,5)" stroke="rgb(5,5,5)" stroke-width="1" opacity="0.28627450980392155" d="M 180.5 113 L 181.5 115 L 180.5 113 Z " /><path fill="rgb(5,5,5)" stroke="rgb(5,5,5)" stroke-width="1" opacity="0.28627450980392155" d="M 145.5 114 L 163 114.5 L 145.5 115 L 145.5 114 Z " /><path fill="rgb(5,5,5)" stroke="rgb(5,5,5)" stroke-width="1" opacity="0.28627450980392155" d="M 46.5 115 L 45.5 117 L 46.5 115 Z " /><path fill="rgb(5,5,5)" stroke="rgb(5,5,5)" stroke-width="1" opacity="0.28627450980392155" d="M 183.5 116 L 185.5 119 L 183.5 116 Z " /><path fill="rgb(5,5,5)" stroke="rgb(5,5,5)" stroke-width="1" opacity="0.28627450980392155" d="M 35.5 117 L 34.5 119 L 35.5 117 Z " /><path fill="rgb(5,5,5)" stroke="rgb(5,5,5)" stroke-width="1" opacity="0.28627450980392155" d="M 175.5 118 L 176.5 120 L 175.5 118 Z " /><path fill="rgb(5,5,5)" stroke="rgb(5,5,5)" stroke-width="1" opacity="0.28627450980392155" d="M 186.5 120 L 187.5 122 L 186.5 120 Z " /><path fill="rgb(5,5,5)" stroke="rgb(5,5,5)" stroke-width="1" opacity="0.28627450980392155" d="M 42.5 121 L 41.5 123 L 42.5 121 Z " /><path fill="rgb(5,5,5)" stroke="rgb(5,5,5)" stroke-width="1" opacity="0.28627450980392155" d="M 178.5 121 L 180.5 124 L 178.5 121 Z " /><path fill="rgb(5,5,5)" stroke="rgb(5,5,5)" stroke-width="1" opacity="0.28627450980392155" d="M 107.5 126 L 110.5 130 L 107.5 126 Z " /><path fill="rgb(5,5,5)" stroke="rgb(5,5,5)" stroke-width="1" opacity="0.28627450980392155" d="M 189.5 126 L 190 128.5 L 189 128.5 L 189.5 126 Z " /><path fill="rgb(5,5,5)" stroke="rgb(5,5,5)" stroke-width="1" opacity="0.28627450980392155" d="M 80.5 127 L 81 159.5 L 80 159.5 L 80.5 127 Z " /><path fill="rgb(5,5,5)" stroke="rgb(5,5,5)" stroke-width="1" opacity="0.28627450980392155" d="M 38.5 128 L 39 129.5 L 37 130.5 L 38.5 128 Z " /><path fill="rgb(5,5,5)" stroke="rgb(5,5,5)" stroke-width="1" opacity="0.28627450980392155" d="M 111.5 131 L 112.5 133 L 111.5 131 Z " /><path fill="rgb(5,5,5)" stroke="rgb(5,5,5)" stroke-width="1" opacity="0.28627450980392155" d="M 190.5 132 L 191 140.5 L 190 140.5 L 190.5 132 Z " /><path fill="rgb(5,5,5)" stroke="rgb(5,5,5)" stroke-width="1" opacity="0.28627450980392155" d="M 106.5 133 L 107.5 135 L 106.5 133 Z " /><path fill="rgb(5,5,5)" stroke="rgb(5,5,5)" stroke-width="1" opacity="0.28627450980392155" d="M 183.5 133 L 184 138.5 L 183 138.5 L 183.5 133 Z " /><path fill="rgb(5,5,5)" stroke="rgb(5,5,5)" stroke-width="1" opacity="0.28627450980392155" d="M 144.5 135 L 146 140.5 L 144.5 145 L 144.5 135 Z " /><path fill="rgb(5,5,5)" stroke="rgb(5,5,5)" stroke-width="1" opacity="0.28627450980392155" d="M 109.5 139 L 110 146.5 L 109 146.5 L 109.5 139 Z " /><path fill="rgb(5,5,5)" stroke="rgb(5,5,5)" stroke-width="1" opacity="0.28627450980392155" d="M 25.5 142 L 26 144.5 L 25 144.5 L 25.5 142 Z " /><path fill="rgb(5,5,5)" stroke="rgb(5,5,5)" stroke-width="1" opacity="0.28627450980392155" d="M 146.5 143 L 147.5 145 L 146.5 143 Z " /><path fill="rgb(5,5,5)" stroke="rgb(5,5,5)" stroke-width="1" opacity="0.28627450980392155" d="M 33.5 144 L 34 146.5 L 33 146.5 L 33.5 144 Z " /><path fill="rgb(5,5,5)" stroke="rgb(5,5,5)" stroke-width="1" opacity="0.28627450980392155" d="M 24.5 149 L 25 152.5 L 24 152.5 L 24.5 149 Z " /><path fill="rgb(5,5,5)" stroke="rgb(5,5,5)" stroke-width="1" opacity="0.28627450980392155" d="M 179.5 149 L 177.5 152 L 179.5 149 Z " /><path fill="rgb(5,5,5)" stroke="rgb(5,5,5)" stroke-width="1" opacity="0.28627450980392155" d="M 32.5 150 L 33 158.5 L 32 158.5 L 32.5 150 Z " /><path fill="rgb(5,5,5)" stroke="rgb(5,5,5)" stroke-width="1" opacity="0.28627450980392155" d="M 186.5 151 L 184.5 154 L 186.5 151 Z " /><path fill="rgb(5,5,5)" stroke="rgb(5,5,5)" stroke-width="1" opacity="0.28627450980392155" d="M 106.5 153 L 104.5 156 L 106.5 153 Z " /><path fill="rgb(5,5,5)" stroke="rgb(5,5,5)" stroke-width="1" opacity="0.28627450980392155" d="M 182.5 155 L 181.5 157 L 182.5 155 Z " /><path fill="rgb(5,5,5)" stroke="rgb(5,5,5)" stroke-width="1" opacity="0.28627450980392155" d="M 110.5 157 L 107.5 161 L 110.5 157 Z " /><path fill="rgb(5,5,5)" stroke="rgb(5,5,5)" stroke-width="1" opacity="0.28627450980392155" d="M 32.5 162 L 33 170.5 L 32 170.5 L 32.5 162 Z " /><path fill="rgb(5,5,5)" stroke="rgb(5,5,5)" stroke-width="1" opacity="0.28627450980392155" d="M 145.5 163 L 169 163.5 L 145.5 164 L 144.5 165 L 145.5 163 Z " /><path fill="rgb(5,5,5)" stroke="rgb(5,5,5)" stroke-width="1" opacity="0.28627450980392155" d="M 189.5 163 L 191.5 166 L 189.5 163 Z " /><path fill="rgb(5,5,5)" stroke="rgb(5,5,5)" stroke-width="1" opacity="0.28627450980392155" d="M 80.5 165 L 81 203.5 L 80 203.5 L 80.5 165 Z " /><path fill="rgb(5,5,5)" stroke="rgb(5,5,5)" stroke-width="1" opacity="0.28627450980392155" d="M 24.5 168 L 25 171.5 L 24 171.5 L 24.5 168 Z " /><path fill="rgb(5,5,5)" stroke="rgb(5,5,5)" stroke-width="1" opacity="0.28627450980392155" d="M 194.5 168 L 195.5 170 L 194.5 168 Z " /><path fill="rgb(5,5,5)" stroke="rgb(5,5,5)" stroke-width="1" opacity="0.28627450980392155" d="M 186.5 169 L 187.5 171 L 186.5 169 Z " /><path fill="rgb(5,5,5)" stroke="rgb(5,5,5)" stroke-width="1" opacity="0.28627450980392155" d="M 189.5 173 L 190.5 175 L 189.5 173 Z " /><path fill="rgb(5,5,5)" stroke="rgb(5,5,5)" stroke-width="1" opacity="0.28627450980392155" d="M 33.5 174 L 34 176.5 L 33 176.5 L 33.5 174 Z " /><path fill="rgb(5,5,5)" stroke="rgb(5,5,5)" stroke-width="1" opacity="0.28627450980392155" d="M 25.5 176 L 26 178.5 L 25 178.5 L 25.5 176 Z " /><path fill="rgb(5,5,5)" stroke="rgb(5,5,5)" stroke-width="1" opacity="0.28627450980392155" d="M 199.5 177 L 200 179.5 L 199 179.5 L 199.5 177 Z " /><path fill="rgb(5,5,5)" stroke="rgb(5,5,5)" stroke-width="1" opacity="0.28627450980392155" d="M 26.5 180 L 27 182.5 L 26 182.5 L 26.5 180 Z " /><path fill="rgb(5,5,5)" stroke="rgb(5,5,5)" stroke-width="1" opacity="0.28627450980392155" d="M 144 183 Q 147 181.8 146 185.5 L 144 184.5 L 144 183 Z " /><path fill="rgb(5,5,5)" stroke="rgb(5,5,5)" stroke-width="1" opacity="0.28627450980392155" d="M 200.5 183 L 201 187.5 L 200 187.5 L 200.5 183 Z " /><path fill="rgb(5,5,5)" stroke="rgb(5,5,5)" stroke-width="1" opacity="0.28627450980392155" d="M 146.5 188 L 147.5 190 L 146.5 188 Z " /><path fill="rgb(5,5,5)" stroke="rgb(5,5,5)" stroke-width="1" opacity="0.28627450980392155" d="M 156.5 189 L 155.5 191 L 156.5 189 Z " /><path fill="rgb(5,5,5)" stroke="rgb(5,5,5)" stroke-width="1" opacity="0.28627450980392155" d="M 190.5 196 L 189.5 198 L 190.5 196 Z " /><path fill="rgb(5,5,5)" stroke="rgb(5,5,5)" stroke-width="1" opacity="0.28627450980392155" d="M 188.5 199 L 184.5 204 L 188.5 199 Z " /><path fill="rgb(5,5,5)" stroke="rgb(5,5,5)" stroke-width="1" opacity="0.28627450980392155" d="M 196.5 200 L 195.5 202 L 196.5 200 Z " /><path fill="rgb(5,5,5)" stroke="rgb(5,5,5)" stroke-width="1" opacity="0.28627450980392155" d="M 194.5 203 L 190.5 208 L 194.5 203 Z " /><path fill="rgb(5,5,5)" stroke="rgb(5,5,5)" stroke-width="1" opacity="0.28627450980392155" d="M 45.5 205 L 46.5 207 L 45.5 205 Z " /><path fill="rgb(5,5,5)" stroke="rgb(5,5,5)" stroke-width="1" opacity="0.28627450980392155" d="M 36.5 206 L 37.5 208 L 36.5 206 Z " /><path fill="rgb(5,5,5)" stroke="rgb(5,5,5)" stroke-width="1" opacity="0.28627450980392155" d="M 145.5 208 L 169 208.5 L 145.5 209 L 145.5 208 Z " /><path fill="rgb(5,5,5)" stroke="rgb(5,5,5)" stroke-width="1" opacity="0.28627450980392155" d="M 38.5 209 L 39.5 211 L 38.5 209 Z " /><path fill="rgb(5,5,5)" stroke="rgb(5,5,5)" stroke-width="1" opacity="0.28627450980392155" d="M 48.5 209 L 56.5 218 L 48.5 209 Z " /><path fill="rgb(5,5,5)" stroke="rgb(5,5,5)" stroke-width="1" opacity="0.28627450980392155" d="M 225.5 212 L 223.5 215 L 225.5 212 Z " /><path fill="rgb(5,5,5)" stroke="rgb(5,5,5)" stroke-width="1" opacity="0.28627450980392155" d="M 41.5 213 L 44.5 217 L 41.5 213 Z " /><path fill="rgb(5,5,5)" stroke="rgb(5,5,5)" stroke-width="1" opacity="0.28627450980392155" d="M 220.5 216 L 219.5 218 L 220.5 216 Z " /><path fill="rgb(5,5,5)" stroke="rgb(5,5,5)" stroke-width="1" opacity="0.28627450980392155" d="M 217.5 218 L 216.5 220 L 217.5 218 Z " /><path fill="rgb(5,5,5)" stroke="rgb(5,5,5)" stroke-width="1" opacity="0.28627450980392155" d="M 47.5 219 L 51.5 224 L 47.5 219 Z " /><path fill="rgb(5,5,5)" stroke="rgb(5,5,5)" stroke-width="1" opacity="0.28627450980392155" d="M 59.5 219 L 61.5 222 L 59.5 219 Z " /><path fill="rgb(5,5,5)" stroke="rgb(5,5,5)" stroke-width="1" opacity="0.28627450980392155" d="M 227.5 219 L 225.5 222 L 227.5 219 Z " /><path fill="rgb(5,5,5)" stroke="rgb(5,5,5)" stroke-width="1" opacity="0.28627450980392155" d="M 63.5 222 L 64.5 224 L 63.5 222 Z " /><path fill="rgb(5,5,5)" stroke="rgb(5,5,5)" stroke-width="1" opacity="0.28627450980392155" d="M 223.5 222 L 222.5 224 L 223.5 222 Z " /><path fill="rgb(5,5,5)" stroke="rgb(5,5,5)" stroke-width="1" opacity="0.28627450980392155" d="M 66.5 224 L 67.5 226 L 66.5 224 Z " /><path fill="rgb(5,5,5)" stroke="rgb(5,5,5)" stroke-width="1" opacity="0.28627450980392155" d="M 207.5 224 L 206.5 226 L 207.5 224 Z " /><path fill="rgb(5,5,5)" stroke="rgb(5,5,5)" stroke-width="1" opacity="0.28627450980392155" d="M 54.5 225 L 55.5 227 L 54.5 225 Z " /><path fill="rgb(5,5,5)" stroke="rgb(5,5,5)" stroke-width="1" opacity="0.28627450980392155" d="M 219.5 225 L 218.5 227 L 219.5 225 Z " /><path fill="rgb(5,5,5)" stroke="rgb(5,5,5)" stroke-width="1" opacity="0.28627450980392155" d="M 203.5 226 L 202.5 228 L 199.5 229 L 199.5 228 L 203.5 226 Z " /><path fill="rgb(5,5,5)" stroke="rgb(5,5,5)" stroke-width="1" opacity="0.28627450980392155" d="M 60.5 229 L 61.5 231 L 60.5 229 Z " /><path fill="rgb(5,5,5)" stroke="rgb(5,5,5)" stroke-width="1" opacity="0.28627450980392155" d="M 65.5 232 L 66.5 234 L 65.5 232 Z " /><path fill="rgb(5,5,5)" stroke="rgb(5,5,5)" stroke-width="1" opacity="0.28627450980392155" d="M 98.5 237 L 101 237.5 L 98.5 238 L 98.5 237 Z " /><path fill="rgb(5,5,5)" stroke="rgb(5,5,5)" stroke-width="1" opacity="0.28627450980392155" d="M 172.5 237 L 175 237.5 L 172.5 238 L 172.5 237 Z " /><path fill="rgb(5,5,5)" stroke="rgb(5,5,5)" stroke-width="1" opacity="0.28627450980392155" d="M 103.5 238 L 106 238.5 L 103.5 239 L 103.5 238 Z " /><path fill="rgb(5,5,5)" stroke="rgb(5,5,5)" stroke-width="1" opacity="0.28627450980392155" d="M 110.5 239 L 114 239.5 L 110.5 240 L 110.5 239 Z " /><path fill="rgb(5,5,5)" stroke="rgb(5,5,5)" stroke-width="1" opacity="0.28627450980392155" d="M 160.5 239 L 164 239.5 L 160.5 240 L 160.5 239 Z " /><path fill="rgb(5,5,5)" stroke="rgb(5,5,5)" stroke-width="1" opacity="0.28627450980392155" d="M 117.5 240 L 126 240.5 L 117.5 241 L 117.5 240 Z " /><path fill="rgb(5,5,5)" stroke="rgb(5,5,5)" stroke-width="1" opacity="0.28627450980392155" d="M 148.5 240 L 156 240.5 L 148.5 241 L 148.5 240 Z " /><path fill="rgb(5,5,5)" stroke="rgb(5,5,5)" stroke-width="1" opacity="0.28627450980392155" d="M 94.5 243 L 97 243.5 L 94.5 244 L 94.5 243 Z " /><path fill="rgb(5,5,5)" stroke="rgb(5,5,5)" stroke-width="1" opacity="0.28627450980392155" d="M 98.5 244 L 101 244.5 L 98.5 245 L 98.5 244 Z " /><path fill="rgb(5,5,5)" stroke="rgb(5,5,5)" stroke-width="1" opacity="0.28627450980392155" d="M 104.5 245 L 107 245.5 L 104.5 246 L 104.5 245 Z " /><path fill="rgb(5,5,5)" stroke="rgb(5,5,5)" stroke-width="1" opacity="0.28627450980392155" d="M 166.5 245 L 169 245.5 L 166.5 246 L 166.5 245 Z " /><path fill="rgb(5,5,5)" stroke="rgb(5,5,5)" stroke-width="1" opacity="0.28627450980392155" d="M 112.5 246 L 116 246.5 L 112.5 247 L 112.5 246 Z " /><path fill="rgb(5,5,5)" stroke="rgb(5,5,5)" stroke-width="1" opacity="0.28627450980392155" d="M 157.5 246 L 161 246.5 L 157.5 247 L 157.5 246 Z " /><path fill="rgb(5,5,5)" stroke="rgb(5,5,5)" stroke-width="1" opacity="0.28627450980392155" d="M 120.5 247 L 154 247.5 L 120.5 248 L 120.5 247 Z " /><path fill="rgb(0,0,0)" stroke="rgb(0,0,0)" stroke-width="1" opacity="0" d="M 0 0 L 251 0 L 251 307 L 0 307 L 0 0 Z M 171 23 L 160 26 L 153 30 L 147 38 L 144 40 L 36 40 L 32 41 L 28 45 Q 27 50 32 51 L 85 51 L 86 50 L 129 50 L 130 49 L 145 49 L 150 57 L 161 63 L 169 65 L 184 65 L 192 63 L 201 58 L 207 49 Q 209 40 205 36 Q 195 22 171 23 Z M 118 74 L 117 75 L 110 75 Q 103 78 94 78 L 84 81 L 62 91 L 51 99 Q 41 107 34 119 L 27 135 L 24 150 L 24 172 L 27 187 Q 32 202 41 214 Q 52 227 69 235 L 87 242 L 99 245 L 120 247 L 121 248 L 154 248 L 162 246 L 175 245 Q 205 238 226 222 L 228 220 L 228 212 L 226 212 L 206 226 L 193 232 L 168 239 L 149 240 L 148 241 L 127 241 L 126 240 L 115 240 L 114 239 L 102 238 L 79 231 L 59 219 Q 46 209 39 195 L 34 180 L 33 163 L 32 162 L 34 142 L 37 132 L 47 115 Q 60 99 81 90 L 101 84 L 113 83 L 114 82 L 126 82 L 127 81 L 148 81 L 149 82 L 160 82 L 161 83 L 174 84 L 201 91 L 227 102 L 227 93 L 195 81 L 166 75 L 158 75 L 157 74 L 118 74 Z M 137 108 L 137 215 L 175 215 Q 184 213 191 208 L 197 201 L 201 188 L 200 178 L 196 170 Q 190 161 179 159 L 182 157 Q 189 152 191 141 L 190 127 L 186 119 Q 180 110 169 108 L 137 108 Z M 75 122 L 75 204 L 81 204 L 81 204 L 81 165 L 98 165 L 108 161 Q 113 157 115 150 Q 117 136 111 130 Q 107 124 99 122 L 75 122 Z M 162 254 Q 152 256 147 262 L 138 264 L 115 264 L 114 263 L 102 263 L 101 262 L 83 262 L 82 261 L 70 261 L 69 260 L 55 260 L 54 259 L 36 259 L 34 260 L 29 266 L 30 272 L 36 275 L 52 275 L 53 274 L 64 274 L 65 273 L 97 272 L 98 271 L 112 271 L 113 270 L 117 271 L 119 270 L 141 270 L 146 271 L 159 279 L 196 279 L 197 278 L 208 278 L 210 276 L 208 268 L 210 265 L 209 263 L 211 258 L 210 256 L 191 256 L 190 255 L 178 255 L 177 254 L 162 254 Z " /><path fill="rgb(0,0,0)" stroke="rgb(0,0,0)" stroke-width="1" opacity="0" d="M 145 115 L 167.5 115 L 178 120 L 183 130.5 L 183 141.5 Q 181.6 149.6 175.5 153 L 165.5 157 L 145 157 L 145.5 141 L 147.5 145 L 155.5 146 Q 160.5 144.5 159 136.5 Q 157.5 131.5 149.5 133 L 147 134 L 145.5 138 L 145 115 Z " /><path fill="rgb(0,0,0)" stroke="rgb(0,0,0)" stroke-width="1" opacity="0" d="M 81 127 L 95.5 127 L 103.5 130 L 106 132.5 Q 110.7 137.3 109 148.5 L 102.5 157 Q 94.7 161.9 81 160 L 81 127 Z " /><path fill="rgb(0,0,0)" stroke="rgb(0,0,0)" stroke-width="1" opacity="0" d="M 145 164 L 173.5 164 L 184.5 168 L 189 172.5 Q 194.2 177.8 193 189.5 Q 190.3 199.8 182.5 205 L 174.5 208 L 145 208 L 145.5 186 L 147.5 190 L 155.5 191 Q 160.5 189.5 159 181.5 Q 157.5 176.5 149.5 178 L 147 179 L 145.5 183 L 145 164 Z " /><path fill="rgb(0,0,0)" stroke="rgb(0,0,0)" stroke-width="1" opacity="0" d="M 181.5 261 L 186 261.5 L 181.5 262 L 181.5 261 Z " /><path fill="rgb(0,0,0)" stroke="rgb(0,0,0)" stroke-width="1" opacity="0" d="M 194.5 261 L 205 261.5 L 194.5 262 L 194.5 261 Z " /><path fill="rgb(1,1,1)" stroke="rgb(1,1,1)" stroke-width="1" opacity="0.9568627450980393" d="M 126.5 74 L 147.5 74 L 148.5 75 L 157.5 75 L 158.5 76 L 167.5 76 L 168.5 77 L 179.5 78 L 202.5 84 L 221.5 91 L 227 94.5 L 227 101 L 224.5 101 L 207.5 93 L 176.5 84 L 164.5 83 L 157.5 81 L 116.5 81 L 115.5 82 L 98.5 84 L 77.5 91 Q 59.7 98.7 48 112.5 Q 38.5 123.5 34 139.5 L 32 150.5 L 32 170.5 L 35 185.5 L 40 197.5 Q 46.4 209.6 56.5 218 Q 66.4 226.6 79.5 232 L 98.5 238 L 116.5 240 L 117.5 241 L 155.5 241 L 156.5 240 L 174.5 238 L 193.5 232 L 216.5 220 L 226.5 212 Q 229.3 213.3 228 218.5 L 214.5 229 Q 201 237 184.5 242 L 172.5 245 L 157.5 246 L 156.5 247 L 116.5 247 L 115.5 246 L 107.5 246 L 92.5 243 L 71.5 236 Q 56.2 228.8 45 217.5 Q 34.7 206.8 29 191.5 L 25 175.5 L 24 153.5 L 27 136.5 L 34 119.5 Q 41.3 106.8 52.5 98 Q 67.4 85.9 88.5 80 L 96.5 79 L 100.5 77 L 125.5 75 L 126.5 74 Z " /><path fill="rgb(1,1,1)" stroke="rgb(1,1,1)" stroke-width="1" opacity="0.9568627450980393" d="M 138 108 L 166.5 108 L 174.5 110 L 183 115 L 189 125.5 Q 191.3 132.2 190 142.5 L 184 155 L 178 158.5 Q 188.4 160.6 194 167.5 Q 201.4 175.1 200 191.5 Q 197.1 203.1 188.5 209 L 183.5 212 L 172.5 215 L 138 215 L 138 108 Z M 145 114 L 145 116 L 144 119 L 145 120 L 145 131 L 145 133 L 144 145 L 145 148 L 144 153 L 144 155 L 145 157 L 168 157 L 178 152 L 182 147 L 184 139 Q 184 129 181 124 Q 177 118 170 115 L 145 114 Z M 146 163 L 144 167 L 145 169 L 145 171 L 144 173 L 145 177 L 144 184 L 145 186 L 144 188 L 145 190 L 145 192 L 144 196 L 145 198 L 145 200 L 144 202 L 145 204 L 145 208 L 146 209 L 169 209 L 171 209 L 180 207 L 185 204 L 191 197 L 194 186 L 192 177 L 188 171 Q 183 166 176 164 Q 170 166 169 163 L 146 163 Z " /><path fill="rgb(1,1,1)" stroke="rgb(1,1,1)" stroke-width="1" opacity="0.9568627450980393" d="M 76.5 122 L 96.5 122 L 101.5 123 L 111 130.5 L 115 139.5 L 115 147.5 Q 113.3 156.8 106.5 161 Q 96.9 167.1 80 165 L 80 203.5 Q 80 204.5 75.5 204 L 75 199.5 L 75 127.5 L 76 126.5 L 75 123.5 L 76.5 122 Z M 80 127 L 80 160 L 97 160 L 105 156 L 110 147 Q 111 139 108 135 Q 105 129 98 127 L 80 127 Z " /><path fill="rgb(1,1,1)" stroke="rgb(1,1,1)" stroke-width="1" opacity="0.9568627450980393" d="M 150.5 133 Q 156.3 132.2 158 135.5 L 159 140.5 L 156.5 145 L 150.5 146 L 146 142.5 Q 145 136 148.5 134 L 150.5 133 Z " /><path fill="rgb(1,1,1)" stroke="rgb(1,1,1)" stroke-width="1" opacity="0.9568627450980393" d="M 150.5 178 Q 156.3 177.2 158 180.5 L 159 185.5 L 158 189 L 154.5 191 L 150.5 191 L 146 187.5 Q 145 181 148.5 179 L 150.5 178 Z " /><path fill="rgb(216,216,216)" stroke="rgb(216,216,216)" stroke-width="1" opacity="0.9294117647058824" d="M 169.5 24 Q 194.5 22 204 35.5 Q 207.5 39.5 206 48.5 L 197.5 59 Q 187.4 66.4 167.5 64 Q 155 62 149 53.5 L 145.5 48 L 128.5 48 L 127.5 49 L 125.5 49 L 87.5 49 L 86.5 50 L 44.5 50 L 43.5 51 L 34.5 51 L 30 49 L 29 45.5 L 30 43 L 34.5 41 L 60.5 41 L 61.5 40 L 65.5 40 L 144.5 41 L 147 40 L 152.5 31 L 161.5 26 L 169.5 24 Z " /><path fill="rgb(216,216,216)" stroke="rgb(216,216,216)" stroke-width="1" opacity="0.9294117647058824" d="M 160.5 255 L 176.5 255 L 178.5 256 L 180.5 256 L 207.5 257 L 209 258.5 L 207.5 260 L 168 260 L 169.5 263 L 207.5 263 L 208 265 L 193.5 265 L 191.5 266 L 189.5 265 L 188.5 266 L 168.5 266 L 167 267.5 L 169.5 269 L 186.5 269 L 188.5 269 L 192.5 268 L 193.5 269 L 204.5 269 L 206.5 269 L 208 269.5 L 202.5 271 L 177.5 271 L 176.5 272 L 168 272 L 168.5 274 L 208.5 274 L 209 276 L 204.5 277 L 165.5 278 L 164.5 279 Q 163.3 276.8 158.5 278 L 145.5 270 L 126.5 269 Q 125 271.5 119.5 270 L 117.5 270 L 113.5 269 L 112.5 270 L 100.5 270 L 99.5 271 L 69.5 272 L 68.5 273 L 35.5 274 L 30 269.5 Q 29.1 262.6 33.5 261 L 35.5 260 L 54.5 260 L 55.5 261 L 81.5 262 L 82.5 263 L 99.5 263 L 100.5 264 Q 110 262.5 115.5 265 Q 116.7 262.8 121.5 264 L 122.5 265 L 134.5 265 L 135.5 264 L 147.5 263 Q 152.4 257.4 160.5 255 Z " /><path fill="rgb(221,221,222)" stroke="rgb(221,221,222)" stroke-width="1" opacity="0.11372549019607843" d="M 170.5 23 Q 181 21.5 187 24.5 L 183.5 25 L 182.5 24 L 170.5 24 L 170.5 23 Z " /><path fill="rgb(221,221,222)" stroke="rgb(221,221,222)" stroke-width="1" opacity="0.11372549019607843" d="M 165.5 24 L 169 24.5 L 162.5 26 L 162.5 25 L 165.5 24 Z " /><path fill="rgb(221,221,222)" stroke="rgb(221,221,222)" stroke-width="1" opacity="0.11372549019607843" d="M 188.5 25 Q 199.6 27.4 205 35.5 Q 208.5 39.5 207 48.5 L 200.5 58 L 189.5 63 L 189.5 62 Q 199.5 60 204 52.5 Q 207.5 48.5 206 39.5 L 198.5 30 L 188.5 26 L 188.5 25 Z " /><path fill="rgb(221,221,222)" stroke="rgb(221,221,222)" stroke-width="1" opacity="0.11372549019607843" d="M 159.5 26 L 161 26.5 L 150 33.5 L 147 40 L 144.5 41 L 100.5 41 L 100.5 40 L 143.5 40 L 147 37.5 L 152.5 30 L 159.5 26 Z " /><path fill="rgb(221,221,222)" stroke="rgb(221,221,222)" stroke-width="1" opacity="0.11372549019607843" d="M 35.5 40 L 61 40.5 L 35.5 41 L 35.5 40 Z " /><path fill="rgb(221,221,222)" stroke="rgb(221,221,222)" stroke-width="1" opacity="0.11372549019607843" d="M 31.5 41 L 34 41.5 L 30 43 L 29 46.5 L 30 49 L 34 50.5 L 31.5 51 Q 27.2 50.3 28 44.5 L 31.5 41 Z " /><path fill="rgb(221,221,222)" stroke="rgb(221,221,222)" stroke-width="1" opacity="0.11372549019607843" d="M 126.5 48 L 128.5 48 L 145.5 48 L 148 50.5 Q 149.4 56.6 154.5 59 L 163 62.5 L 160.5 63 L 150 56.5 L 144.5 49 L 87.5 50 L 87.5 49 L 125.5 49 L 126.5 48 Z " /><path fill="rgb(221,221,222)" stroke="rgb(221,221,222)" stroke-width="1" opacity="0.11372549019607843" d="M 44.5 50 L 85 50.5 L 44.5 51 L 44.5 50 Z " /><path fill="rgb(221,221,222)" stroke="rgb(221,221,222)" stroke-width="1" opacity="0.11372549019607843" d="M 164.5 63 L 167 63.5 L 164.5 64 L 164.5 63 Z " /><path fill="rgb(221,221,222)" stroke="rgb(221,221,222)" stroke-width="1" opacity="0.11372549019607843" d="M 185.5 63 L 188 63.5 L 185.5 64 L 185.5 63 Z " /><path fill="rgb(221,221,222)" stroke="rgb(221,221,222)" stroke-width="1" opacity="0.11372549019607843" d="M 168.5 64 L 184 64.5 L 168.5 65 L 168.5 64 Z " /><path fill="rgb(221,221,222)" stroke="rgb(221,221,222)" stroke-width="1" opacity="0.11372549019607843" d="M 161.5 254 L 176.5 254 L 179 255.5 L 177.5 256 L 176.5 255 L 161.5 255 L 161.5 254 Z " /><path fill="rgb(221,221,222)" stroke="rgb(221,221,222)" stroke-width="1" opacity="0.11372549019607843" d="M 157.5 255 L 160 255.5 Q 152 257.5 147.5 263 L 138.5 264 L 138.5 263 L 146.5 262 L 157.5 255 Z " /><path fill="rgb(221,221,222)" stroke="rgb(221,221,222)" stroke-width="1" opacity="0.11372549019607843" d="M 180.5 255 L 190 255.5 L 180.5 256 L 180.5 255 Z " /><path fill="rgb(221,221,222)" stroke="rgb(221,221,222)" stroke-width="1" opacity="0.11372549019607843" d="M 195.5 256 L 209.5 256 L 211 257.5 L 209 262.5 L 210 264.5 L 208 267.5 L 210 275.5 L 207.5 278 L 196.5 278 L 195.5 279 L 165.5 279 L 165.5 278 L 186.5 278 L 187.5 277 Q 201.1 278.4 209 276 L 208.5 274 L 168.5 274 L 168 272 L 176.5 272 L 177.5 271 L 202.5 271 L 208 269.5 L 205.5 268 L 204.5 269 L 193.5 269 L 191.5 269 L 187.5 268 L 186.5 269 L 169.5 269 L 167 267.5 L 168.5 266 L 188.5 266 L 190.5 265 L 192.5 266 L 193.5 265 L 208 265 L 207.5 263 L 169.5 263 L 168 260 L 207.5 260 L 209 258.5 L 207.5 257 L 195.5 257 L 195.5 256 Z M 182 261 L 182 262 L 186 262 L 182 261 Z M 195 261 L 195 262 L 205 262 L 195 261 Z " /><path fill="rgb(221,221,222)" stroke="rgb(221,221,222)" stroke-width="1" opacity="0.11372549019607843" d="M 35.5 259 L 54 259.5 L 35.5 260 L 31 263.5 L 30 269.5 L 35.5 274 L 52 274.5 L 35.5 275 L 30 271.5 L 29 265.5 L 33.5 260 L 35.5 259 Z " /><path fill="rgb(221,221,222)" stroke="rgb(221,221,222)" stroke-width="1" opacity="0.11372549019607843" d="M 55.5 260 L 68.5 260 L 69.5 261 L 81.5 261 L 82.5 262 L 100.5 262 L 101.5 263 L 113.5 263 L 116 264.5 L 113.5 265 L 112.5 264 L 100.5 264 L 99.5 263 L 82.5 263 L 81.5 262 L 55.5 261 L 55.5 260 Z " /><path fill="rgb(221,221,222)" stroke="rgb(221,221,222)" stroke-width="1" opacity="0.11372549019607843" d="M 122.5 264 L 135 264.5 L 122.5 265 L 122.5 264 Z " /><path fill="rgb(221,221,222)" stroke="rgb(221,221,222)" stroke-width="1" opacity="0.11372549019607843" d="M 118.5 269 L 117.5 271 L 116 270.5 L 118.5 269 Z " /><path fill="rgb(221,221,222)" stroke="rgb(221,221,222)" stroke-width="1" opacity="0.11372549019607843" d="M 126.5 269 L 137 269.5 L 126.5 270 L 126.5 269 Z " /><path fill="rgb(221,221,222)" stroke="rgb(221,221,222)" stroke-width="1" opacity="0.11372549019607843" d="M 100.5 270 L 112 270.5 L 100.5 271 L 100.5 270 Z " /><path fill="rgb(221,221,222)" stroke="rgb(221,221,222)" stroke-width="1" opacity="0.11372549019607843" d="M 141.5 270 L 145.5 270 L 158.5 278 L 164 278.5 L 158.5 279 L 145.5 271 L 141.5 271 L 141.5 270 Z " /><path fill="rgb(221,221,222)" stroke="rgb(221,221,222)" stroke-width="1" opacity="0.11372549019607843" d="M 83.5 271 L 97 271.5 L 83.5 272 L 83.5 271 Z " /><path fill="rgb(221,221,222)" stroke="rgb(221,221,222)" stroke-width="1" opacity="0.11372549019607843" d="M 69.5 272 L 78 272.5 L 69.5 273 L 69.5 272 Z " /><path fill="rgb(221,221,222)" stroke="rgb(221,221,222)" stroke-width="1" opacity="0.11372549019607843" d="M 53.5 273 L 64 273.5 L 53.5 274 L 53.5 273 Z " /></svg>