<svg width="227" height="276" version="1.1" xmlns="http://www.w3.org/2000/svg" desc="Created with imagetracer.js version 1.2.6" ><path fill="rgb(31,99,68)" stroke="rgb(31,99,68)" stroke-width="1" opacity="0.14901960784313725" d="M 104.5 61 L 145.5 61 L 146.5 62 L 162.5 63 L 186.5 69 L 211.5 78 L 215 80.5 L 216 86.5 L 215 89 L 180.5 76 L 155 70.5 L 159.5 70 L 181.5 75 L 213.5 88 Q 216 87 215 82.5 L 214 80 L 186.5 70 L 161.5 64 L 145.5 63 L 144.5 62 L 105.5 62 L 104.5 63 L 89.5 64 L 85.5 66 L 77.5 67 L 58.5 74 Q 41 82.5 29 96.5 Q 19.3 107.8 15 124.5 L 13 135.5 L 13 159.5 L 17 177.5 L 29 200 L 32 201.5 L 39.5 210 Q 56.4 224.1 81.5 230 L 96.5 233 L 104.5 233 L 105.5 234 L 143.5 234 L 144.5 233 L 152.5 233 L 163.5 231 L 183.5 225 Q 201.6 218.1 215 206.5 L 216 201.5 L 213.5 200 L 198.5 211 L 184.5 218 L 163.5 225 L 146.5 228 L 103.5 228 L 102.5 227 L 85.5 225 L 62.5 217 Q 45.3 208.7 34 194.5 Q 26 184 22 169.5 L 20 159.5 L 20 135.5 Q 25 105 45.5 90 L 60.5 80 L 85.5 71 L 102.5 68 L 134.5 67 L 135.5 68 L 147.5 68 L 154 69.5 L 147.5 70 L 146.5 69 L 104.5 69 L 103.5 70 L 96.5 70 L 86.5 72 L 67.5 78 Q 49.1 85.6 37 99.5 Q 27.5 110.5 23 126.5 Q 23.6 132.6 21 135.5 L 21 158.5 L 24 172.5 L 29 184.5 Q 34.8 195.2 43.5 203 Q 53.8 212.2 67.5 218 L 86.5 224 L 103.5 226 L 104.5 227 L 146.5 227 L 158.5 224 L 163.5 224 L 179.5 219 Q 199.8 210.8 215.5 198 Q 218.5 199.5 217 205.5 L 216 208 Q 202.9 217.7 186.5 225 L 168.5 231 L 153.5 234 L 145.5 234 L 144.5 235 L 105.5 235 L 104.5 234 L 96.5 234 L 80.5 231 L 57.5 223 Q 42.7 215.8 32 204.5 L 18 183.5 L 13 167.5 L 11 144.5 L 12 143.5 L 13 128.5 L 16 117.5 L 21 106.5 L 32 91 L 50.5 77 L 62.5 71 L 80.5 65 L 96.5 62 L 103.5 62 L 104.5 61 Z " /><path fill="rgb(31,99,68)" stroke="rgb(31,99,68)" stroke-width="1" opacity="0.14901960784313725" d="M 126.5 94 L 152 94.5 L 126 95 L 126 200.5 L 127.5 202 L 159.5 202 Q 160.8 199.7 165.5 201 Q 176.4 198.4 182 190.5 L 187 181.5 L 188 169.5 L 185 159.5 L 176.5 150 L 166 145.5 L 175 137.5 L 178 128.5 L 178 117.5 Q 176 105.5 167.5 100 Q 162.8 95.7 154 95.5 L 159.5 95 Q 168 97.5 173 103.5 L 178 112.5 L 179 129.5 Q 176.9 138.9 170.5 144 Q 167.9 143.3 169 146 L 173.5 147 L 183 154.5 L 188 163.5 L 189 177.5 Q 186.3 190.8 176.5 197 L 171.5 200 L 159.5 203 L 126.5 203 L 125 201.5 L 125 95.5 L 126.5 94 Z " /><path fill="rgb(31,99,68)" stroke="rgb(31,99,68)" stroke-width="1" opacity="0.14901960784313725" d="M 133.5 101 L 152.5 101 L 157.5 102 Q 165.4 104.1 169 110.5 Q 173.2 116.3 172 127.5 Q 170.5 136 164.5 140 L 155.5 144 L 138.5 144 L 138.5 143 L 155.5 143 Q 164.5 140.5 169 133.5 L 171 126.5 L 171 119.5 L 169 112.5 L 163.5 106 L 152.5 102 L 134 102 L 133 105.5 L 133 122 L 138.5 119 L 142.5 119 L 147 122.5 L 148 127.5 L 144.5 133 L 138.5 134 L 133 131 L 133 142.5 L 134 143.5 L 132 144 L 132 102.5 L 133.5 101 Z M 139 120 L 137 121 L 134 125 L 135 131 L 139 133 L 144 132 L 147 128 L 146 124 Q 145 119 139 120 Z " /><path fill="rgb(31,99,68)" stroke="rgb(31,99,68)" stroke-width="1" opacity="0.14901960784313725" d="M 64.5 108 L 83.5 108 L 88.5 109 Q 96.4 111.1 100 117.5 L 104 127.5 L 104 134.5 Q 102 144.5 94.5 149 L 82.5 153 L 69 153 L 69 187.5 L 70 190.5 Q 68.4 193.5 63 192 L 62 188.5 L 63 187.5 L 63 109.5 L 64.5 108 Z M 64 109 L 64 191 L 68 191 L 68 152 L 83 152 L 95 148 Q 101 143 103 134 Q 103 123 99 118 Q 95 112 89 110 L 84 109 L 64 109 Z " /><path fill="rgb(31,99,68)" stroke="rgb(31,99,68)" stroke-width="1" opacity="0.14901960784313725" d="M 68 114 L 86 114.5 L 69 115 L 69 146 L 84.5 146 Q 91.7 144.2 95 138.5 Q 98.3 134.8 97 126.5 Q 95.5 120 90.5 117 L 87 115.5 L 88.5 115 L 94 118 L 98 126.5 L 98 134.5 L 91.5 144 L 85.5 147 L 68 147 L 68 114 Z " /><path fill="rgb(31,99,68)" stroke="rgb(31,99,68)" stroke-width="1" opacity="0.14901960784313725" d="M 133.5 150 L 157.5 150 Q 159 152.5 164.5 151 Q 173.4 153.1 178 159.5 Q 182.2 164.8 182 174.5 Q 180 186.5 171.5 192 L 159.5 196 L 133.5 196 L 132 194.5 L 132 151.5 L 133.5 150 Z M 135 151 L 133 153 L 134 168 L 139 164 L 145 165 L 148 171 L 147 176 L 142 179 L 139 179 L 144 177 L 147 173 L 146 169 L 142 165 L 136 166 L 134 170 L 135 176 L 138 177 L 138 178 L 135 176 Q 132 175 133 182 L 133 184 Q 132 188 134 190 L 133 193 L 135 195 L 160 195 L 168 193 L 174 189 Q 179 184 181 175 L 181 171 L 178 162 Q 174 154 165 152 Q 158 154 157 151 L 135 151 Z " /><path fill="rgb(0,0,0)" stroke="rgb(0,0,0)" stroke-width="1" opacity="0" d="M 0 0 L 227 0 L 227 276 L 0 276 L 0 0 Z M 158 10 Q 147 12 141 17 Q 135 21 134 27 L 23 27 L 19 29 L 16 33 L 17 36 L 22 39 L 134 36 L 136 41 Q 143 49 156 52 L 173 52 Q 183 50 190 44 L 195 36 Q 197 27 193 23 Q 183 8 158 10 Z M 105 61 L 104 62 L 97 62 L 81 65 L 63 71 L 51 77 L 32 91 L 21 107 L 16 118 L 13 129 L 12 144 L 11 145 L 13 168 L 18 184 L 32 205 Q 43 216 58 223 L 81 231 L 97 234 L 105 234 L 106 235 L 145 235 L 146 234 L 154 234 L 169 231 L 187 225 Q 203 218 216 208 L 217 206 Q 218 199 216 198 Q 200 211 180 219 L 164 224 L 159 224 L 147 227 L 105 227 L 104 226 L 87 224 L 68 218 Q 54 212 44 203 Q 35 195 29 185 L 24 173 L 21 159 L 21 136 Q 24 133 23 127 Q 28 111 37 100 Q 49 86 68 78 L 87 72 L 97 70 L 104 70 L 105 69 L 147 69 Q 148 72 155 70 L 181 76 L 215 89 L 216 87 L 215 81 L 212 78 L 187 69 L 163 63 L 147 62 L 146 61 L 105 61 Z M 127 94 L 125 96 L 125 202 L 127 203 L 160 203 L 172 200 L 177 197 Q 186 191 189 178 L 188 164 L 183 155 L 174 147 L 169 146 Q 168 143 171 144 Q 177 139 179 130 L 178 113 L 173 104 Q 168 98 160 95 Q 153 97 152 94 L 127 94 Z M 65 108 L 63 110 L 63 188 L 62 189 L 63 192 Q 68 193 70 191 L 69 188 L 69 153 L 83 153 L 95 149 Q 102 144 104 135 L 104 128 L 100 118 Q 96 111 89 109 L 84 108 L 65 108 Z M 150 241 Q 140 244 134 250 L 125 250 L 124 251 L 86 250 L 85 249 L 58 248 L 57 247 L 45 247 L 44 246 L 30 246 L 29 245 L 22 247 L 17 253 L 18 259 L 24 262 L 43 262 L 44 261 L 70 260 L 71 259 L 105 258 L 106 257 L 130 257 Q 139 259 144 265 L 151 267 L 152 266 L 196 265 L 197 264 Q 200 265 198 261 L 198 259 Q 200 253 197 252 L 198 245 L 197 243 L 188 243 L 187 242 L 150 241 Z " /><path fill="rgb(0,0,0)" stroke="rgb(0,0,0)" stroke-width="1" opacity="0" d="M 134 102 L 157.5 103 L 167 109.5 L 171 119.5 L 171 126.5 L 169 133.5 L 162.5 140 L 155.5 143 Q 142.8 141.3 134.5 144 L 133 142.5 L 133 131 L 138.5 134 L 142.5 134 L 147 130.5 L 148 125.5 L 144.5 120 L 138.5 119 L 133 122 L 133 105.5 L 134 102 Z " /><path fill="rgb(0,0,0)" stroke="rgb(0,0,0)" stroke-width="1" opacity="0" d="M 69 115 L 86.5 115 L 95 121.5 Q 98.1 125.9 97 134.5 L 89.5 144 L 84.5 146 L 69 146 L 69 115 Z " /><path fill="rgb(0,0,0)" stroke="rgb(0,0,0)" stroke-width="1" opacity="0" d="M 134.5 151 L 156.5 151 Q 158.2 153.7 164.5 152 Q 173.5 154.4 178 161.5 L 181 170.5 L 181 174.5 Q 179.4 184 173.5 189 L 167.5 193 L 159.5 195 L 134.5 195 L 133 192.5 L 134 189.5 Q 131.7 188.2 133 183.5 L 133 181.5 Q 131.8 175.4 134.5 176 Q 136.3 179.2 141.5 179 L 147 175.5 L 148 170.5 L 144.5 165 L 138.5 164 L 133.5 168 L 133 152.5 L 134.5 151 Z " /><path fill="rgb(0,0,0)" stroke="rgb(0,0,0)" stroke-width="1" opacity="0" d="M 157.5 247 L 166 247.5 L 157.5 248 L 157.5 247 Z " /><path fill="rgb(0,0,0)" stroke="rgb(0,0,0)" stroke-width="1" opacity="0" d="M 171.5 248 L 192 248.5 L 171.5 249 L 171.5 248 Z " /><path fill="rgb(138,147,143)" stroke="rgb(138,147,143)" stroke-width="1" opacity="0.8862745098039215" d="M 157.5 10 Q 183.2 8.3 193 22.5 Q 196.5 26.5 195 35.5 L 189.5 44 Q 182.9 49.9 172.5 52 L 155.5 52 Q 142.6 49.4 136 40.5 L 134 36 L 21.5 39 L 17 35.5 L 16 32.5 L 18.5 29 L 22.5 27 L 134 27 Q 135.1 20.7 140.5 17 Q 147.1 11.6 157.5 10 Z " /><path fill="rgb(138,147,143)" stroke="rgb(138,147,143)" stroke-width="1" opacity="0.8862745098039215" d="M 105.5 62 L 144.5 62 L 145.5 63 L 161.5 64 L 186.5 70 L 214 80 L 215 86.5 Q 213.8 89.3 212.5 87 L 190.5 78 L 165.5 71 L 160.5 71 L 147.5 68 L 115.5 67 L 114.5 68 L 102.5 68 L 101.5 69 L 90.5 70 L 69.5 76 Q 47.5 84.5 34 101.5 L 27 112.5 L 22 125.5 L 20 135.5 L 20 159.5 Q 25.5 191 46.5 207 L 62.5 217 L 85.5 225 L 102.5 227 L 103.5 228 L 146.5 228 L 163.5 225 L 184.5 218 Q 201.3 210.8 214.5 200 Q 216.8 200.8 216 204.5 L 212.5 209 Q 192.5 224.5 163.5 231 L 152.5 233 L 144.5 233 L 143.5 234 L 105.5 234 L 104.5 233 L 90.5 232 L 67.5 226 L 47.5 216 L 32 202.5 L 30.5 200 Q 28.3 200.8 29 198.5 Q 20.2 188.8 16 174.5 L 13 159.5 L 13 135.5 L 15 124.5 L 21 108.5 Q 27.4 96.4 37.5 88 Q 49.1 77.1 65.5 71 L 89.5 64 L 104.5 63 L 105.5 62 Z " /><path fill="rgb(138,147,143)" stroke="rgb(138,147,143)" stroke-width="1" opacity="0.8862745098039215" d="M 126 95 L 153.5 95 Q 154.8 97.3 159.5 96 Q 168.8 99.2 174 106.5 L 178 117.5 L 178 128.5 Q 176.1 140.1 167.5 145 L 166 145.5 Q 177.3 148.2 183 156.5 Q 188.5 163 188 175.5 Q 186 188.5 177.5 195 L 171.5 199 L 159.5 202 L 127.5 202 L 126 200.5 L 126 95 Z M 134 101 L 132 103 L 132 144 L 156 144 L 165 140 Q 171 136 172 128 Q 173 116 169 111 Q 165 104 158 102 L 153 101 L 134 101 Z M 134 150 L 132 152 L 132 195 L 134 196 L 160 196 L 172 192 Q 180 187 182 175 Q 182 165 178 160 Q 173 153 165 151 Q 159 153 158 150 L 134 150 Z " /><path fill="rgb(138,147,143)" stroke="rgb(138,147,143)" stroke-width="1" opacity="0.8862745098039215" d="M 64 109 L 83.5 109 L 88.5 110 Q 95.3 112.3 99 117.5 Q 103.4 123.1 103 133.5 Q 101.2 143.2 94.5 148 L 82.5 152 L 68 152 L 68 190.5 L 64 191 L 64 109 Z M 68 114 L 68 147 L 86 147 L 92 144 L 98 135 L 98 127 L 94 118 L 86 114 L 68 114 Z " /><path fill="rgb(138,147,143)" stroke="rgb(138,147,143)" stroke-width="1" opacity="0.8862745098039215" d="M 138.5 120 Q 144.7 119.3 146 123.5 L 147 127.5 L 143.5 132 L 138.5 133 L 135 131 L 134 124.5 L 136.5 121 L 138.5 120 Z " /><path fill="rgb(138,147,143)" stroke="rgb(138,147,143)" stroke-width="1" opacity="0.8862745098039215" d="M 138.5 165 Q 144.7 164.3 146 168.5 L 147 172.5 L 143.5 177 L 138.5 178 L 135 175.5 L 134 169.5 L 136 166 L 138.5 165 Z " /><path fill="rgb(138,147,143)" stroke="rgb(138,147,143)" stroke-width="1" opacity="0.8862745098039215" d="M 149.5 241 L 186.5 242 L 187.5 243 L 196.5 243 L 198 244.5 L 197 251.5 Q 199.5 253 198 258.5 L 198 260.5 Q 199.5 264.9 196.5 264 L 195.5 265 L 151.5 266 L 150.5 267 Q 139.8 265.2 134.5 258 L 129.5 257 L 105.5 257 L 104.5 258 L 70.5 259 L 69.5 260 L 43.5 261 L 42.5 262 L 23.5 262 L 18 258.5 L 17 252.5 L 21.5 247 L 28.5 245 L 29.5 246 L 43.5 246 L 44.5 247 L 56.5 247 L 57.5 248 L 84.5 249 L 85.5 250 L 123.5 251 L 124.5 250 L 133.5 250 Q 139.6 243.6 149.5 241 Z M 158 247 L 158 248 L 166 248 L 158 247 Z M 172 248 L 172 249 L 192 249 L 172 248 Z " /></svg>